<svg viewBox="0 0 170 170" xmlns="http://www.w3.org/2000/svg">
  <path fill="currentColor" d="M150.37,130.25c-2.45,5.66-5.35,10.87-8.71,15.66c-8.58,12.23-17.45,24.37-31.29,24.37c-13.11,0-18.15-7.97-33.52-7.97 c-15.35,0-20.87,7.97-33.51,7.97c-13.11,0-23.13-13.08-31.13-24.37C5.39,124.9,0,105.74,0,85.1c0-33.3,21.57-50.8,42.74-50.8 c11.16,0,21.72,7.74,31.54,7.74c9.8,0,21.43-7.74,34.75-7.74c10.42,0,24.3,3.9,33.52,14.6c-1.84,1.1-14.47,8.27-14.47,24.51 c0,19.5,16.8,26.4,16.8,26.4S154.51,113.16,150.37,130.25z M112.56,22.28c-4.43-5.38-7.42-12.87-7.42-20.35c0-1.1,0.11-2.18,0.22-3.26 c7.07,0.27,14.24,4.78,19.13,10.3c4.24,4.78,7.6,12.5,7.6,19.9c0,1.21-0.1,2.3-0.22,3.3C124.51,32.7,117.76,28.59,112.56,22.28z"/>
</svg>
